<?xml version="1.0" encoding="utf-8"?>
<!-- Generator: Adobe Illustrator 19.1.1, SVG Export Plug-In . SVG Version: 6.00 Build 0)  -->
<svg version="1.1" xmlns="http://www.w3.org/2000/svg" xmlns:xlink="http://www.w3.org/1999/xlink" x="0px" y="0px"
	 viewBox="0 0 1400 1000" enable-background="new 0 0 1400 1000" xml:space="preserve">
<g id="background">
	<g>
		<g>
			<rect x="0" y="0" fill="#8BD1F3" width="1400" height="1000"/>
			<g>
				<g>
					<g>
						<g>
							<path fill="#60C0EF" d="M266.76,1000V89.574c0-5.129-4.157-9.286-9.286-9.286c-5.129,0-9.286,4.157-9.286,9.286v68.714
								h-26.929V89.949c0-5.129-4.157-9.286-9.286-9.286H0l0,257.77h62.471v21.357H0l0,213.541
								c9.294-12.552,14.803-28.068,14.803-44.85v-68.404h56.19V1000h14.858V460.078h42.86V1000h14.857V460.078h68.405
								c5.129,0,9.286-4.157,9.286-9.286v-81.716c0-5.129-4.157-9.286-9.286-9.286H77.328v-21.357h134.645
								c5.129,0,9.286-4.157,9.286-9.286v-66.858h26.929V1000H266.76z M248.188,243.717h-26.929v-66.858h26.929V243.717z"/>
						</g>
					</g>
				</g>
			</g>
			<g>
				<path fill="#60C0EF" d="M367.711,30.48L1400,29.051V0H367.678c-8.324,0-15.028,6.828-14.877,15.15l0.013,0.721
					C352.961,23.99,359.591,30.492,367.711,30.48z"/>
				<path fill="#60C0EF" d="M368.529,73.895L1400,70.432V41.423L368.438,43.46c-8.312,0.016-14.999,6.839-14.848,15.15l0.012,0.676
					C353.75,67.416,360.398,73.922,368.529,73.895z"/>
				<path fill="#60C0EF" d="M369.346,117.244L1400,111.754V82.787L369.197,86.854c-8.3,0.033-14.969,6.851-14.818,15.15l0.011,0.631
					C354.538,110.777,361.203,117.287,369.346,117.244z"/>
				<path fill="#60C0EF" d="M370.162,160.528L1400,153.017v-28.926l-1030.045,6.092c-8.289,0.049-14.94,6.862-14.789,15.15
					l0.011,0.586C355.325,154.072,362.008,160.587,370.162,160.528z"/>
				<path fill="#60C0EF" d="M370.977,203.746L1400,194.221v-28.885l-1029.288,8.111c-8.277,0.065-14.91,6.873-14.76,15.149
					l0.01,0.541C356.11,197.302,362.811,203.822,370.977,203.746z"/>
				<path fill="#60C0EF" d="M371.79,246.899L1400,235.365v-28.843L371.468,216.646c-8.266,0.081-14.881,6.884-14.731,15.149
					l0.009,0.496C356.895,240.467,363.613,246.991,371.79,246.899z"/>
				<path fill="#60C0EF" d="M372.602,289.988L1400,276.451v-28.802L372.222,259.78c-8.254,0.097-14.851,6.895-14.701,15.149
					l0.008,0.451C357.678,283.567,364.414,290.096,372.602,289.988z"/>
				<path fill="#60C0EF" d="M373.413,333.011L1400,317.478v-28.761L372.976,302.849c-8.243,0.113-14.822,6.906-14.672,15.148
					l0.007,0.406C358.46,326.603,365.214,333.135,373.413,333.011z"/>
				<path fill="#60C0EF" d="M374.223,375.97L1400,358.446v-28.72L373.728,345.854c-8.231,0.129-14.793,6.917-14.643,15.148
					l0.007,0.361C359.24,369.573,366.012,376.111,374.223,375.97z"/>
				<path fill="#60C0EF" d="M375.031,418.865L1400,399.356v-28.679L374.479,388.795c-8.219,0.145-14.764,6.928-14.614,15.148
					l0.006,0.316C360.02,412.48,366.81,419.021,375.031,418.865z"/>
				<path fill="#60C0EF" d="M375.838,461.695L1400,440.207v-28.638L375.229,431.671c-8.208,0.161-14.734,6.939-14.585,15.147
					l0.005,0.271C360.798,455.321,367.606,461.867,375.838,461.695z"/>
				<path fill="#60C0EF" d="M376.644,504.461L1400,481v-28.597l-1024.022,22.08c-8.196,0.177-14.705,6.95-14.556,15.146l0.004,0.226
					C361.576,498.099,368.401,504.65,376.644,504.461z"/>
				<path fill="#60C0EF" d="M377.449,547.162L1400,521.735v-28.556L376.726,517.231c-8.185,0.192-14.676,6.96-14.527,15.146
					l0.003,0.181C362.352,540.813,369.195,547.368,377.449,547.162z"/>
				<path fill="#60C0EF" d="M378.252,589.8L1400,562.412v-28.516L377.473,559.916c-8.173,0.208-14.647,6.971-14.499,15.145
					l0.002,0.135C363.127,583.463,369.987,590.022,378.252,589.8z"/>
				<path fill="#60C0EF" d="M379.055,632.374L1400,603.031v-28.475l-1021.782,27.98c-8.161,0.224-14.618,6.981-14.47,15.144
					l0.002,0.09C363.901,626.049,370.779,632.612,379.055,632.374z"/>
				<path fill="#60C0EF" d="M379.856,674.885L1400,643.593v-28.435L378.963,645.094c-8.15,0.239-14.589,6.992-14.441,15.143
					l0.001,0.045C364.673,668.571,371.569,675.139,379.856,674.885z"/>
				<path fill="#60C0EF" d="M380.656,717.332L1400,684.096v-28.394L379.706,687.588c-8.138,0.254-14.56,7.002-14.412,15.143v0
					C365.445,711.031,372.359,717.602,380.656,717.332z"/>
			</g>
			<polygon fill="#3292D8" points="1400,777.293 0,848.149 0,1000 1399.5,1000 			"/>
			<g>
				<path fill="#253847" d="M254.131,1000l28.617-109.965c0.526-2.021-3.915-4.067-9.901-4.599L75.59,867.893
					c-5.625-0.5-12.009,0.528-14.302,2.323L0,918.187V1000H254.131z"/>
				<g>
					<path fill="#FFFFFF" d="M94.3,981.855l-5.853-0.62c-6.585-0.698-9.923-3.791-7.472-6.825l59.105-73.122
						c1.454-1.799,6.722-2.873,11.732-2.411l4.451,0.411c5.025,0.464,8.095,2.314,6.8,4.134l-52.723,74.071
						C108.152,980.57,100.911,982.555,94.3,981.855z"/>
					<g>
						<path fill="#FFFFFF" d="M49.12,900.078c18.139,10.727,58.749,15.014,96.378,10.242c26.087,10.854,68.623,14.495,101.029,8.315
							c6.743-1.281,8.313-4.246,4.455-5.965l0,0c-3.796-1.701-10.385-2.031-15.294-1.181c-24.418,4.316-56.007,1.611-75.854-6.29
							c-0.086-0.399-0.404-0.775-0.999-1.103l0,0c-1.605-0.893-4.364-1.389-7.452-1.52c-2.864-0.422-5.955-0.47-8.605,0.026h0
							c-0.978,0.182-1.784,0.452-2.422,0.782c-28.074,3.373-58.357,0.259-72.639-7.53c-2.874-1.54-8.724-2.357-14.134-1.551h0
							C48.112,895.112,45.374,897.871,49.12,900.078z"/>
						<path fill="#FFFFFF" d="M27.776,914.372c18.714,12.798,63.621,17.672,105.879,11.534
							c28.081,13.054,75.287,17.224,111.345,9.437c7.427-1.598,9.166-5.181,4.944-7.219l0,0c-4.146-2.013-11.363-2.361-16.757-1.307
							c-27.344,5.448-62.643,2.254-83.92-7.385c-0.146-0.358-0.441-0.697-0.931-0.999h0c-1.631-1.012-4.461-1.576-7.678-1.74
							c-3.011-0.43-6.251-0.443-9.085,0.141h0c-0.848,0.174-1.579,0.414-2.211,0.697c-31.621,4.502-65.478,1.015-80.474-8.3
							c-2.964-1.806-9.296-2.737-15.367-1.749h0C27.373,908.473,23.951,911.767,27.776,914.372z"/>
						<path fill="#FFFFFF" d="M1.87,931.719c19.08,15.573,69.238,21.204,117.361,13.167c30.344,16.028,83.308,20.884,123.903,10.871
							c8.265-2.031,10.212-6.446,5.552-8.907l0,0c-4.567-2.425-12.543-2.793-18.531-1.464c-31.042,7.023-70.986,3.138-93.792-8.922
							c-0.172-0.251-0.394-0.493-0.712-0.715l0,0c-1.657-1.165-4.566-1.823-7.934-2.029c-3.189-0.437-6.617-0.4-9.678,0.299h0
							c-0.586,0.133-1.117,0.3-1.617,0.485c-36.16,6.145-74.545,2.215-90.223-9.159c-3.032-2.154-9.932-3.229-16.835-1.999h0
							C2.362,924.586-1.983,928.59,1.87,931.719z"/>
						<path fill="#FFFFFF" d="M247.034,967.987L247.034,967.987c-4.569-2.642-13.516-3.09-20.571-1.695
							c-36.205,7.292-80.04,2.771-104.246-10.578c-0.226-0.122-0.466-0.239-0.706-0.356c-0.049-0.037-0.082-0.078-0.135-0.114h0
							c-1.768-1.237-4.8-1.966-8.319-2.234c-3.391-0.431-7.008-0.376-10.255,0.351c-0.097,0.021-0.181,0.05-0.276,0.073
							c-0.368,0.054-0.737,0.109-1.101,0.171c-38.969,6.799-81.127,2.451-100.381-10.186c-0.318-0.205-0.674-0.398-1.046-0.584
							v18.136c27.258,8.19,66.342,10.05,103.959,4.012c32.15,16.809,88.398,22.183,134.684,12.367
							C248.349,975.298,251.667,970.65,247.034,967.987z"/>
					</g>
				</g>
				<g>
					<g>
						<path fill="#39596A" d="M265.775,889.611l-32.905-3.223c-2.548-0.25-5.04,0.186-5.752,1.01l-0.223,0.258
							c-0.828,0.959,1.06,2.042,4.053,2.314l33.569,3.041c2.76,0.25,5.249-0.294,5.599-1.219l0.006-0.015
							C270.475,890.847,268.527,889.881,265.775,889.611z"/>
					</g>
				</g>
			</g>
			<g>
				<path fill="#253847" d="M352.525,223.124l-4.593,147.715l-4.593,147.715l137.969,5.306l137.969,5.306l7.033-150.597
					l7.033-150.597c0,0-32.147-29.11-83.323-44.271S428.64,167.327,352.525,223.124z"/>
				<path fill="#DDE9F0" d="M657.312,459.634c7.058-1.2,43,70.167,61,97.5c18,27.333,59.333,99.241,59.333,99.241
					s20.333,35.425,30.333,58.092s25,86.667,6.333,100.667c-18.667,14-74.217,41.327-86.217,38.66
					c-12-2.667-28.449-8.66-28.449-8.66s-37.727-53.209-37.06-70.543c0.667-17.333,48.06-42.457,48.06-42.457s-11-3.333-12.333-10
					c-1.333-6.667,10.333-10.667,10.333-10.667s-16.667,0.667-20-6s1-14.333,1-14.333l-46.667-68
					C642.979,623.135,591.646,470.801,657.312,459.634z"/>
				<path fill="#FFFFFF" d="M409.812,389.134c0,0-117,50.5-128,58.5s-18.5,20-16,46c2.5,26,21.5,76,21.5,102s0.5,140.5,0.5,140.5
					l-3.5,97.5l350-19c0,0-2.753-47.893-2.753-64.893s21.417-37.526,25.849-82.022c5.611-56.334-11.097-90.584-13.097-123.584
					s14.5-72,13-84.5S488.312,394.634,409.812,389.134z"/>
				<path fill="#DDE9F0" d="M547.065,407.79c0,0,33.431,31.353,49.159,79.668c3.52,10.813,7.345,33.123,9.104,44.043
					c0.429,2.666-2.319,4.707-4.751,3.535l-36.481-17.579c0,0,15.551,42.686,12.884,48.686c-2.667,6-44.777,45.241-44.777,45.241
					l-39.223-32.25L547.065,407.79z"/>
				<path fill="#DDE9F0" d="M452.979,484.468c-2.732-8.741-25.32-69.188-38.646-88.448c-2.936-4.243-5.424-6.497-7.15-5.748
					c0,0-16.87,18.863-22.87,37.529c-6,18.667,7.537,120,11.435,123.333c3.898,3.333,59.231-37.333,59.231-37.333
					s-5.333,60.667,0,68.667c5.333,8,66.667,40.253,80,47.46c9.989,5.399-4.344-24.679-21.974-53.002
					c-5.902-9.482-12.173-18.767-18.026-26.458C471.646,519.801,456.312,495.134,452.979,484.468z"/>
				<path fill="#DDE9F0" d="M536.924,622.557c0,0,0.025,0.034,0.075,0.1c0.062,0.093,0.156,0.231,0.278,0.414
					c0.218,0.341,0.507,0.799,0.845,1.409c0.673,1.216,1.571,2.99,2.456,5.316c0.901,2.318,1.807,5.168,2.632,8.477
					c0.87,3.303,1.554,7.063,2.164,11.18c0.591,4.113,1.06,8.587,1.301,13.316l0.056,0.89l0.028,0.447l0.014,0.224l0.009,0.303
					c0.016,0.587,0.033,1.178,0.049,1.773c0.033,1.189,0.066,2.393,0.1,3.61c0.042,2.446-0.038,5.024-0.054,7.604
					c-0.027,2.595-0.137,5.15-0.204,7.784c-0.053,2.627-0.196,5.268-0.343,7.933c-0.262,5.335-0.625,10.733-0.959,16.138
					c-0.441,5.391-0.882,10.782-1.316,16.088c-0.412,5.307-1.023,10.509-1.515,15.552c-0.508,5.041-1.084,9.906-1.647,14.516
					c-0.282,2.305-0.556,4.547-0.82,6.716c-0.292,2.166-0.575,4.259-0.846,6.268c-0.523,4.02-1.079,7.696-1.568,10.955
					c-0.479,3.26-0.948,6.097-1.332,8.433c-0.769,4.672-1.285,7.337-1.285,7.337l-0.002,0.013c-0.219,1.13-1.312,1.869-2.442,1.65
					c-1.007-0.195-1.703-1.085-1.688-2.076c0,0,0.01-0.676,0.028-1.942c0.033-1.266,0.049-3.126,0.129-5.488
					c0.074-2.362,0.139-5.234,0.284-8.52c0.117-3.289,0.264-6.997,0.468-11.038c0.186-4.043,0.39-8.421,0.666-13.046
					c0.264-4.626,0.499-9.507,0.853-14.546c0.328-5.04,0.599-10.254,0.989-15.539c0.353-5.286,0.712-10.657,1.071-16.027
					c0.374-5.363,0.777-10.729,1.078-16.002c0.309-5.271,0.681-10.47,0.923-15.44c0.098-2.476,0.23-4.869,0.297-7.292
					c0.032-1.217,0.063-2.421,0.094-3.611c0.016-0.595,0.031-1.186,0.046-1.773c-0.001-0.548-0.002-1.093-0.003-1.634
					c-0.004-2.27-0.017-4.479-0.11-6.605c-0.021-2.136-0.149-4.182-0.242-6.155c-0.139-1.962-0.265-3.85-0.462-5.625
					c-0.088-0.891-0.173-1.759-0.256-2.602c-0.11-0.837-0.217-1.65-0.32-2.438c-0.463-3.138-0.946-5.858-1.478-8.039
					c-0.544-2.175-1.04-3.845-1.44-4.919c-0.194-0.538-0.366-0.934-0.463-1.165c-0.042-0.099-0.074-0.175-0.096-0.225
					c-0.039-0.074-0.059-0.111-0.059-0.111l-0.016-0.03c-0.619-1.167-0.175-2.616,0.993-3.235
					C534.945,621.32,536.23,621.63,536.924,622.557z"/>
				<path fill="#F7B4AB" d="M624.312,742.135c7.689-1.025,13.5,5.5,22.5,4.5s21.5,0,16.5,9.5s-28.008,12.369-28.008,12.369
					l-35.492-5.369C599.812,763.135,609.312,744.135,624.312,742.135z"/>
				<path fill="#F49B8F" d="M601.812,756.135c0,0-9.5-14-20-13.5s-10.5,9.5-18.5,13.5s-5.5,19.5,12,15
					S601.812,756.135,601.812,756.135z"/>
				<path fill="#BBD3E1" d="M705.751,847.903c0,0,44.339,3.731,36.95-28.019c-7.389-31.75-23.26-43.7-41.666-51.381
					s-33.684,7.24-28.723,23.631C677.273,808.525,705.751,847.903,705.751,847.903z"/>
				<path fill="#F49B8F" d="M720.351,779.069c0,0-51.553,1.565-61.796-3.935c-10.243-5.5-33.186-25.5-46.214-24.5
					c-2.406,0.185-5.341,0.813-8.526,1.715c-14.059,3.98-33.003,13.285-33.003,13.285s-22.666,18-22.583,33.5
					c0.083,15.5,47.583,75,47.583,75s3.643,0.5,28.072,0s47.428-9.5,55.428-21.5s15.939-3.731,26.439-4.731
					s36.304,2.203,38.561-17.269C747.312,804.748,720.351,779.069,720.351,779.069z"/>
				<path fill="#F7B4AB" d="M447.312,771.635l85.667,10.5c0,0,16.333-9,37.833-16.5c0,0-17.5,16-12.5,20.5s26-2.5,42-10.25
					s41.5-12.25,55.5-7.75s19.5,24,9.5,24.5s-28.5-6-45.5-3s-44,8.5-43,21.5s21.654,10.337,40.577,4.419
					c18.923-5.919,33.423-13.919,36.923-11.919s27.442-1.009,27.721,13.246c0.279,14.254-33.721,7.754-43.721,9.254s-53.5,1-59,11.5
					s10,16,18.5,16.5s22-1.5,34.5-5.5s38-9,40.5-1s0.486,18.5-14.257,16.5c-14.743-2-41.243-9.019-48.743-5.51s-15.5,9.01-14,15.51
					c0,0-16.777-8.5-31.139-12.5c-14.361-4-51.361-9-59.361-11c-8-2-58,3-58,3S373.312,793.635,447.312,771.635z"/>
				<path fill="#DDE9F0" d="M332.979,582.468c4.667-20.667,14.667-51.333,0-79.333c-14.667-28-40.962-53.967-59.148-47.984
					c-18.185,5.984-66.185,159.984-66.185,159.984s-24,31.333-22.667,40.667c1.333,9.333-15.333,28.667-18,42
					c-2.667,13.333-20,136-8.667,141.333c11.333,5.333,206,8,212,8s64.667,11.333,82.667,11.333s9.333-47.333,24.667-69.333
					c15.333-22,13.333-29.333,0-31.333c-13.333-2-27.333,1.333-58.667-5.333s-107.333-3.333-107.333-3.333s0-17.333-16-21.333
					c0,0,12.667-6.667,6.667-20C296.312,694.468,332.979,582.468,332.979,582.468z"/>
				<path fill="#DDE9F0" d="M609.646,605.43c0,0,25.613-7.463,29.473,5.121c3.86,12.584,17.333,69.25-14.737,79.25
					c-32.07,10-52.07,1.333-56.737-24.667s-2.667-45.808-2.667-45.808L609.646,605.43z"/>
				<g>
					<g>
						<path fill="#253847" d="M603.06,645.758c-2.388,0.348-4.692-0.305-6.485-1.642c-1.793-1.337-3.076-3.358-3.424-5.747
							l-6.923-47.513l-21.62-148.392c-3.554-24.394-16.699-45.068-35.055-58.755c-18.355-13.687-41.92-20.387-66.314-16.833
							c-24.394,3.554-45.068,16.7-58.755,35.055c-13.687,18.356-20.387,41.921-16.833,66.315c0.348,2.388-0.305,4.691-1.642,6.485
							s-3.358,3.076-5.747,3.424c-2.388,0.348-4.691-0.305-6.485-1.642c-1.793-1.337-3.076-3.358-3.424-5.747
							c-4.249-29.163,3.761-57.335,20.124-79.28s41.078-37.66,70.24-41.909c29.163-4.249,57.335,3.761,79.28,20.124
							c21.944,16.363,37.66,41.079,41.909,70.242l21.62,148.392l6.923,47.513c0.348,2.388-0.305,4.691-1.642,6.485
							C607.469,644.127,605.448,645.41,603.06,645.758z"/>
					</g>
					<path fill="#253847" d="M634.76,635.251c1.309,8.986-1.148,17.651-6.178,24.398c-5.031,6.747-12.635,11.574-21.621,12.883
						c-8.986,1.309-17.652-1.148-24.398-6.178c-6.747-5.031-11.574-12.635-12.883-21.621s1.148-17.651,6.178-24.398
						c5.031-6.747,12.635-11.574,21.621-12.883s17.651,1.148,24.398,6.178C628.623,618.661,633.451,626.265,634.76,635.251z"/>
					<path fill="#FFFFFF" d="M617.95,637.7c0.633,4.344-0.555,8.533-2.987,11.794c-2.432,3.261-6.108,5.595-10.452,6.228
						s-8.533-0.555-11.794-2.987c-3.261-2.432-5.595-6.108-6.228-10.452c-0.633-4.344,0.555-8.533,2.987-11.794
						c2.432-3.261,6.108-5.595,10.452-6.228s8.533,0.555,11.794,2.987S617.317,633.356,617.95,637.7z"/>
					<g>
						<path fill="#A1C2D6" d="M368.088,689.78l-6.649,0.969l-6.649,0.969c-2.388,0.348-4.691-0.305-6.485-1.642
							c-1.793-1.337-3.076-3.358-3.424-5.747l-10.614-72.846l-10.614-72.846c-0.348-2.388,0.305-4.692,1.642-6.485
							c1.337-1.793,3.358-3.076,5.747-3.424s4.691,0.305,6.485,1.642s3.076,3.358,3.424,5.747l9.983,68.522l9.983,68.522
							l2.324-0.339l2.324-0.339c2.388-0.348,4.691,0.305,6.485,1.642s3.076,3.358,3.424,5.747c0.348,2.388-0.305,4.692-1.642,6.485
							C372.498,688.149,370.477,689.432,368.088,689.78z"/>
					</g>
					<g>
						<path fill="#A1C2D6" d="M465.611,675.571l-6.648,0.969l-6.648,0.969c-2.388,0.348-4.691-0.305-6.485-1.642
							c-1.793-1.337-3.076-3.358-3.424-5.747c-0.348-2.388,0.305-4.691,1.642-6.485c1.337-1.793,3.358-3.076,5.747-3.424
							l2.323-0.339l2.323-0.339l-9.983-68.522l-9.983-68.522c-0.348-2.388,0.305-4.691,1.642-6.485
							c1.337-1.793,3.358-3.076,5.747-3.424s4.691,0.305,6.485,1.642s3.076,3.358,3.424,5.747l10.614,72.846l10.613,72.846
							c0.348,2.388-0.305,4.691-1.642,6.485C470.02,673.94,467.999,675.224,465.611,675.571z"/>
					</g>
					<g>
						<path fill="#253847" d="M443.836,526.12c-2.388,0.348-4.691-0.305-6.485-1.642c-1.793-1.337-3.076-3.358-3.424-5.747
							c-1.878-12.892-8.826-23.818-18.526-31.052s-22.155-10.775-35.047-8.897c-12.892,1.878-23.818,8.826-31.052,18.527
							c-7.234,9.701-10.775,22.155-8.897,35.047c0.348,2.388-0.305,4.691-1.642,6.485c-1.337,1.793-3.358,3.076-5.747,3.424
							s-4.691-0.305-6.485-1.642s-3.076-3.358-3.424-5.747c-2.573-17.661,2.278-34.723,12.187-48.012
							c9.91-13.29,24.878-22.807,42.539-25.38c17.661-2.573,34.722,2.278,48.012,12.187c13.289,9.91,22.806,24.878,25.38,42.539
							c0.348,2.388-0.305,4.692-1.642,6.485C448.245,524.489,446.224,525.772,443.836,526.12z"/>
					</g>
				</g>
				<path fill="#F7B4AB" d="M546.312,377.801c0.582-79.302-84.37-77.333-84.37-77.333s-46.756,79.189-47.61,95.552
					c13.327,19.26,35.915,79.707,38.646,88.448c3.333,10.667,18.667,35.333,42,66c5.852,7.691,12.123,16.977,18.026,26.458
					l24.477-66.966c5.143-14.07,7.842-28.914,7.946-43.894c0.034-4.903,0.271-10.282,0.885-15.599
					C548.312,433.134,546.312,377.801,546.312,377.801z"/>
				<path fill="#F49B8F" d="M546.312,377.801c0.582-79.302-84.37-77.333-84.37-77.333s-46.756,79.189-47.61,95.552
					c3.063,4.426,6.615,11.03,10.302,18.679c0.226,0.145,0.454,0.291,0.678,0.435c20.011,13.341,44.287,30.852,63.977,46.739
					c6.537,5.274,15.907,5.111,22.253-0.392c13.414-11.633,23.133-20.259,35.657-35.771
					C547.251,403.779,546.312,377.801,546.312,377.801z"/>
				<g>
					<g>
						<path fill="#F49B8F" d="M600.885,248.061c0,0,8.001-1.42,15.786,2.443c7.786,3.863,15.356,13.009,14.494,34.141
							c-0.861,21.132-12.624,30.398-24.581,32.962c-11.957,2.564-24.109-1.575-25.749-7.253s3.372-21.251,8.795-35.405
							C595.053,260.795,600.885,248.061,600.885,248.061z"/>
						<path fill="#F49B8F" d="M382.874,239.408c0,0-7.868-2.03-15.927,1.223s-16.309,11.791-17.074,32.927
							c-0.764,21.136,10.252,31.278,21.977,34.753s24.159,0.281,26.23-5.254c2.071-5.536-1.73-21.448-6.05-35.976
							C387.711,252.552,382.874,239.408,382.874,239.408z"/>
					</g>
					<g>
						<path fill="#F7B4AB" d="M501.284,90.203L501.284,90.203L501.284,90.203c-33.477-1.287-64.34,12-87.177,34.524
							s-37.647,54.284-39.018,89.942l-1.443,37.516l-1.443,37.516c-1.371,35.658,10.956,60.899,31.995,85.11
							c21.039,24.211,63.431,48.769,84.267,48.68l0,0h0c20.528,1.315,64.339-19.563,87.176-42.087
							c22.837-22.524,37.647-46.722,39.018-82.379l1.443-37.516l1.443-37.516c1.371-35.658-10.956-68.462-31.996-92.673
							S534.761,91.49,501.284,90.203z"/>
						<path fill="#FFFFFF" d="M522.871,341.591c-6.109,1.545-15.223,3.383-25.55,3.915c-10.327,0.533-21.868-0.239-32.832-3.911
							c-2.092-0.701-4.122-0.029-5.409,1.325c-1.288,1.353-1.834,3.388-0.958,5.413c2.378,5.499,6.31,12.035,12.247,17.034
							c5.936,5,13.877,8.464,24.272,7.821c13.292-0.822,21.02-4.285,25.849-8.963s6.759-10.57,8.456-16.251
							c0.564-1.889,0.001-3.726-1.18-4.97C526.582,341.759,524.782,341.108,522.871,341.591z"/>
						<path fill="#F49B8F" d="M508.496,388.323c-4.721,0.63-9.464,1.018-14.213,1.164s-9.506,0.049-14.255-0.29
							c-1.364-0.097-2.558-0.742-3.385-1.691c-0.826-0.948-1.285-2.2-1.178-3.507l0,0l0,0c0.108-1.309,0.728-2.439,1.64-3.22
							c0.912-0.781,2.116-1.212,3.393-1.122c4.497,0.321,9.002,0.413,13.5,0.275c4.498-0.138,8.989-0.505,13.46-1.102
							c1.27-0.169,2.499,0.188,3.456,0.911c0.957,0.724,1.643,1.814,1.828,3.114l0,0l0,0c0.185,1.298-0.199,2.575-0.968,3.573
							C511.004,387.425,509.851,388.142,508.496,388.323z"/>
					</g>
					<g>
						<path fill="#253847" d="M449.038,271.263c-0.148,3.843-1.839,7.262-4.454,9.684c-2.615,2.422-6.154,3.845-9.997,3.698
							c-3.843-0.148-7.262-1.839-9.684-4.454c-2.422-2.615-3.845-6.154-3.698-9.997c0.148-3.843,1.839-7.262,4.454-9.684
							c2.615-2.422,6.154-3.845,9.997-3.698c3.843,0.148,7.262,1.839,9.684,4.454C447.762,263.881,449.186,267.42,449.038,271.263z"
							/>
						<path fill="#253847" d="M567.302,275.811c-0.148,3.843-1.839,7.262-4.454,9.684c-2.615,2.422-6.154,3.845-9.997,3.698
							c-3.843-0.148-7.262-1.839-9.684-4.454c-2.422-2.615-3.845-6.154-3.698-9.997c0.148-3.843,1.839-7.262,4.454-9.684
							c2.615-2.422,6.154-3.845,9.997-3.698c3.843,0.148,7.262,1.839,9.684,4.454C566.026,268.429,567.45,271.968,567.302,275.811z"
							/>
					</g>
					<g>
						<path fill="#253847" d="M534.745,251.478c-1.023-0.039-2.033-0.303-2.951-0.78c-0.918-0.476-1.743-1.166-2.396-2.056
							c-1.139-1.549-1.542-3.413-1.273-5.175c0.269-1.762,1.211-3.421,2.76-4.559c10.164-7.468,20.281-9.044,28.834-7.923
							c8.552,1.122,15.539,4.941,19.443,8.266c1.463,1.247,2.283,2.969,2.425,4.746c0.142,1.777-0.393,3.607-1.641,5.071
							c-1.243,1.458-2.957,2.276-4.726,2.423c-1.769,0.147-3.594-0.379-5.057-1.61c-0.755-0.623-4.49-3.517-10.047-4.778
							c-5.557-1.26-12.938-0.887-20.984,5.026c-0.66,0.485-1.377,0.837-2.118,1.059
							C536.271,251.413,535.504,251.507,534.745,251.478z"/>
					</g>
					<g>
						<path fill="#253847" d="M416.221,246.92c-1.023-0.039-2.033-0.303-2.951-0.78c-0.918-0.477-1.743-1.166-2.397-2.055
							c-1.139-1.55-1.542-3.414-1.273-5.176c0.269-1.762,1.211-3.42,2.76-4.558c10.164-7.468,20.282-9.044,28.834-7.923
							c8.552,1.122,15.54,4.941,19.444,8.266c1.463,1.247,2.283,2.969,2.425,4.746c0.142,1.777-0.393,3.607-1.641,5.071
							c-1.242,1.458-2.955,2.276-4.724,2.423s-3.594-0.379-5.059-1.61c-0.755-0.623-4.489-3.517-10.046-4.778
							c-5.557-1.26-12.938-0.887-20.987,5.026c-0.66,0.485-1.377,0.837-2.118,1.059C417.748,246.855,416.981,246.949,416.221,246.92
							z"/>
					</g>
					<path fill="#253847" d="M500.284,124.598c0,0-5.716,20.86-27.044,43.606s-58.267,47.377-120.715,54.921
						c0,0-0.119-18.21,6.52-42c6.639-23.79,20.038-53.159,47.072-75.478c37.671-31.099,83.652-36.552,124.27-24.772
						c40.617,11.78,75.87,40.791,92.083,78.62c7.541,17.595,10.259,34.714,11.092,47.435c0.833,12.721-0.219,21.042-0.219,21.042
						s-24.739-0.777-53.741-14.088C550.601,200.574,517.336,174.73,500.284,124.598z"/>
					<g>
						<path fill="#253847" d="M615.259,201.405c0,0-5.814,11.239-9.314,28.266s-4.686,39.84,4.57,62.987
							c0.436,1.091,1.514,1.664,2.631,1.709c1.118,0.045,2.275-0.437,2.872-1.456c3.865-6.598,8.965-20.823,10.454-37.724
							S625.839,218.708,615.259,201.405z"/>
						<path fill="#253847" d="M385.911,192.584c0,0,5.236,11.664,7.271,28.903s0.869,40.053-11.935,62.353
							c-0.603,1.051-1.916,1.532-3.233,1.483c-1.316-0.048-2.635-0.626-3.251-1.691c-3.987-6.9-8.135-21.481-7.819-38.427
							C367.26,228.259,372.04,208.947,385.911,192.584z"/>
					</g>
					<path fill="#F49B8F" d="M508.94,310.721c0,0,0.358-8.633-0.756-17.993c-1.114-9.359-3.7-19.444-9.588-22.347
						c-5.888-2.903-12.399,7.877-16.036,20.308c-3.637,12.431-4.4,26.513,1.21,30.213c5.61,3.7,11.975,4.421,16.901,2.584
						C505.597,321.649,509.085,317.254,508.94,310.721z"/>
					<path fill="#253847" d="M436.133,219.711c-1.138-0.247-2.182-0.924-2.869-1.977c-1.381-2.122-0.783-4.962,1.34-6.344
						c36.297-23.654,52.097-48.653,58.957-65.46c7.278-17.834,6.244-30,6.234-30.121c-0.238-2.521,1.615-4.756,4.137-4.991
						c2.523-0.24,4.755,1.618,4.991,4.137c0.056,0.585,1.247,14.547-6.872,34.44c-7.355,18.017-24.159,44.73-62.444,69.677
						C438.54,219.768,437.288,219.962,436.133,219.711z"/>
					<path fill="#253847" d="M597.954,295.446c-1.98-0.43-3.504-2.147-3.603-4.267c-1.209-25.926,2.052-45.428,4.999-57.223
						c3.246-13.001,6.833-19.833,6.986-20.118c1.185-2.238,3.955-3.08,6.199-1.898c2.232,1.187,3.082,3.955,1.9,6.189l0,0
						c-0.032,0.062-3.245,6.258-6.192,18.048c-2.8,11.201-5.893,29.759-4.736,54.573c0.12,2.53-1.836,4.676-4.366,4.793
						C598.734,295.563,598.336,295.529,597.954,295.446z"/>
				</g>
			</g>
			<g>
				<path fill="#BBD3E1" d="M1034.839,967.306c-4.003,1.629-8.404,2.009-12.627,1.09l-291.895-63.538
					c-4.359-0.925-4.649-7.037-0.398-8.371l201.606-63.249c0.65-0.204,1.339-0.252,2.012-0.139l332.922,18.125l-4.557,18.764
					c-1.217,5.013-4.798,9.12-9.599,11.009L1034.839,967.306z"/>
				<path fill="#DDE9F0" d="M1023.059,960.648l-292.743-62.123c-4.359-0.925-4.649-7.037-0.398-8.371l201.606-63.249
					c0.65-0.204,1.339-0.252,2.012-0.139l332.922,24.458L1023.059,960.648z"/>
				<path fill="#253847" d="M1048.735,848.03l-174.281,55.256c-4.46,1.391-4.196,7.79,0.363,8.81l131.745,29.486
					c0.943,0.211,1.928,0.117,2.814-0.267l172.371-74.067c4.064-1.764,3.484-7.701-0.845-8.645l-129.834-10.674
					C1050.294,847.759,1049.491,847.795,1048.735,848.03z"/>
				<path fill="#BBD3E1" d="M966.948,862.82l-74.998,23.732c-3.004,0.951-6.207,1.077-9.277,0.365l-57.737-13.383
					c-1.486-0.344-1.566-2.43-0.111-2.888l74.419-23.421c2.954-0.93,6.101-1.063,9.122-0.386l58.457,13.092
					C968.317,860.264,968.407,862.358,966.948,862.82z"/>
				<path fill="#FFFFFF" d="M1020.45,953.574l95.674-263.323c3.497-9.565,11.83-16.539,21.863-18.296l206.909-47.818
					c4.425-0.775,8.023,3.542,6.464,7.755l-82.135,223.107c-2.815,7.608-8.737,13.657-16.284,16.632l-224.888,89.358
					C1023.381,962.831,1018.725,958.291,1020.45,953.574z"/>
			</g>
			<g>
				<path fill="#DDE9F0" d="M326.281,908.534l-157.485-14.006c-4.491-0.399-9.588,0.422-11.418,1.854L68.315,1000h235.716
					l30.155-87.794C334.605,910.593,331.06,908.959,326.281,908.534z"/>
				<g>
					<polygon fill="#BBD3E1" points="289.927,929.667 170.593,919 163.076,929.667 285.925,942.833 					"/>
					<polygon fill="#BBD3E1" points="280.054,952.563 160.721,941.897 153.204,952.563 276.052,965.73 					"/>
					<polygon fill="#BBD3E1" points="270.182,975.46 150.848,964.793 143.332,975.46 266.18,988.626 					"/>
				</g>
			</g>
			<g>
				<path fill="#253847" d="M469.656,885.645l-153.925-14.508c-5.027-0.474-9.489,3.22-9.963,8.249l-0.371,3.938
					c-0.474,5.031,3.219,9.493,8.246,9.967l153.925,14.508L469.656,885.645z"/>
				<path fill="#BBD3E1" d="M321.386,871.67l-5.655-0.533c-5.027-0.474-9.489,3.22-9.963,8.249l-0.371,3.938
					c-0.474,5.031,3.219,9.493,8.246,9.967l5.655,0.533L321.386,871.67z"/>
				<polygon fill="#EDF7F9" points="507.929,900.226 467.58,907.724 469.599,885.572 				"/>
				<polygon fill="#253847" points="497.623,902.141 507.929,900.226 498.156,896.489 				"/>
			</g>
		</g>
		
			<radialGradient id="SVGID_1_" cx="1050.6075" cy="500" r="869.0052" gradientTransform="matrix(0.8235 0 0 1 -165.2063 0)" gradientUnits="userSpaceOnUse">
			<stop  offset="0.0836" style="stop-color:#000000;stop-opacity:0"/>
			<stop  offset="1" style="stop-color:#000000"/>
		</radialGradient>
		<rect x="0" y="0" opacity="0.59" fill="url(#SVGID_1_)" width="1400" height="1000"/>
	</g>
</g>
<g id="Vexels">
	<g>
		<g>
			<path fill="#FFFFFF" d="M2377.897,335.484h-644.659c-10.94,0-19.81,8.87-19.81,19.81v268.082l-62.03,19.923l62.03,18.008v186.82
				c0,10.939,8.87,19.81,19.81,19.81h644.659c10.94,0,19.811-8.87,19.811-19.81V355.294
				C2397.708,344.354,2388.838,335.484,2377.897,335.484z"/>
			<rect x="1777.998" y="402.472" fill="none" width="583.032" height="407.034"/>
			<text transform="matrix(1 0 0 1 1777.998 419.5122)"><tspan x="0" y="0" fill="#333333" font-family="'MyriadPro-Regular'" font-size="24px">This design was made by vexels.com. It’s under CC 3.0 </tspan><tspan x="0" y="28.8" fill="#333333" font-family="'MyriadPro-Regular'" font-size="24px">Attribution License. This means that for free use you must </tspan><tspan x="0" y="57.6" fill="#333333" font-family="'MyriadPro-Regular'" font-size="24px">give credit and can’t do merchandise items. You can only </tspan><tspan x="0" y="86.4" fill="#333333" font-family="'MyriadPro-Regular'" font-size="24px">do commercial and merchandise items without credit if </tspan><tspan x="0" y="115.2" fill="#333333" font-family="'MyriadPro-Regular'" font-size="24px">you get a license. Learn more on </tspan><tspan x="327.785" y="115.2" fill="#C64B09" font-family="'MyriadPro-Regular'" font-size="24px">www.vexels.com/plans</tspan><tspan x="0" y="172.8" fill="#333333" font-family="'MyriadPro-Regular'" font-size="24px">You can’t sublicense, redistribute or resell an image or </tspan><tspan x="0" y="201.6" fill="#333333" font-family="'MyriadPro-Regular'" font-size="24px">part of it. You can only use our contents for products </tspan><tspan x="0" y="230.4" fill="#333333" font-family="'MyriadPro-Regular'" font-size="24px">where the design is the main reason it’s being purchased </tspan><tspan x="0" y="259.2" fill="#333333" font-family="'MyriadPro-Regular'" font-size="24px">if you get a license. Learn more on </tspan><tspan x="0" y="288" fill="#C64B09" font-family="'MyriadPro-Regular'" font-size="24px">www.vexels.com/terms-and-conditions</tspan><tspan x="0" y="345.6" fill="#333333" font-family="'MyriadPro-Regular'" font-size="24px">Thanks!</tspan><tspan x="0" y="374.4" fill="#333333" font-family="'MyriadPro-Regular'" font-size="24px">Vexels Team</tspan></text>
		</g>
	</g>
	<g>
		<g>
			<path fill="#253847" d="M1198.909,39.753l-0.914-1.977c-0.448-0.951-1.644-1.394-2.648-0.985
				c-1.087,0.372-1.572,1.495-1.124,2.412l1.027,2.226l8.12,17.619c0.077,0.07,0.15,0.204,0.185,0.273
				c0,0.033,0.043,0.033,0.043,0.033c0.036,0.068,0.112,0.136,0.187,0.206c0,0.067,0.035,0.067,0.035,0.099
				c0.11,0.07,0.187,0.103,0.26,0.172c0.036,0,0.036,0,0.036,0c0.114,0.068,0.263,0.169,0.339,0.202c0.037,0,0.037,0,0.037,0
				s0.038,0,0.038,0.037c0.073,0,0.223,0.033,0.299,0.064c0.033,0,0.073,0,0.073,0c0.112,0.035,0.262,0.035,0.377,0.035
				c0.11,0,0.223,0,0.373-0.035c0.034,0,0.071,0,0.071,0c0.112-0.031,0.186-0.064,0.301-0.064c0.038-0.037,0.038-0.037,0.073-0.037
				c0.113-0.033,0.227-0.135,0.3-0.172c0.073-0.031,0.073-0.031,0.073-0.031c0.075-0.068,0.148-0.102,0.222-0.172
				c0.04-0.033,0.04-0.033,0.077-0.099c0.038-0.07,0.148-0.138,0.185-0.206c0.036,0,0.036,0,0.036-0.033
				c0.078-0.068,0.118-0.203,0.154-0.273l0.348-0.748l-2.213-4.792L1198.909,39.753z M1278.115,39.612
				c0.634-0.851,0.487-2.006-0.446-2.585c-0.934-0.645-2.167-0.475-2.874,0.409l-4.256,5.308l2.534,3.1L1278.115,39.612z
				 M1215.244,36.791c-1.005-0.409-2.237,0.033-2.686,0.985l-5.409,11.686l2.22,4.798l6.997-15.056
				C1216.776,38.286,1216.293,37.163,1215.244,36.791z M1167.05,29.607c-0.878-0.879-2.046-1.361-3.287-1.361
				s-2.407,0.482-3.285,1.361l-15.042,15.045c-1.81,1.815-1.81,4.758,0,6.567l15.042,15.048c0.879,0.876,2.045,1.357,3.285,1.357
				s2.408-0.481,3.287-1.355l15.042-15.049c0.879-0.88,1.362-2.042,1.362-3.285c0-1.236-0.484-2.403-1.362-3.282L1167.05,29.607z
				 M1179.757,49.286l-14.643,14.642c-0.724,0.724-1.977,0.724-2.695,0l-14.646-14.642c-0.744-0.744-0.744-1.955-0.003-2.7
				l14.649-14.644c0.012-0.012,0.024-0.024,0.038-0.032v12.135c-0.596,0.203-1.146,0.521-1.604,0.98
				c-0.779,0.779-1.204,1.809-1.204,2.909c0,1.1,0.426,2.138,1.204,2.91c0.776,0.783,1.812,1.209,2.909,1.209
				c1.102,0,2.136-0.424,2.915-1.209c1.603-1.601,1.603-4.215,0-5.824c-0.458-0.458-1.008-0.774-1.606-0.976V31.909
				c0.013,0.008,0.028,0.021,0.043,0.032l14.643,14.644c0.362,0.359,0.555,0.84,0.555,1.348
				C1180.312,48.444,1180.119,48.919,1179.757,49.286z M1271.025,48.376l-2.506-3.126l-6.306-7.814
				c-0.639-0.884-1.944-1.054-2.842-0.409c-0.933,0.579-1.12,1.734-0.486,2.585l7.095,8.764l-7.095,8.838
				c-0.633,0.814-0.447,2.005,0.486,2.582c0.337,0.237,0.749,0.373,1.194,0.373c0.636,0,1.231-0.308,1.647-0.782l6.306-7.849
				l6.737,8.429c0.389,0.484,1.004,0.735,1.575,0.735c0.428,0,0.925-0.197,1.284-0.482c0.847-0.674,0.911-1.893,0.236-2.737
				L1271.025,48.376z M1238.005,36.423c-6.038,0-10.953,5.339-10.953,11.899c0,6.508,4.915,11.809,10.953,11.809
				c3.708,0,7.127-2.024,9.14-5.416c0.486-0.877,0.242-1.966-0.614-2.617c-0.276-0.178-0.601-0.273-0.933-0.273
				c-0.646,0-1.22,0.346-1.531,0.912c-1.265,2.231-3.588,3.612-6.061,3.612c-3.662,0-6.7-2.914-7.245-6.859h16.294
				c1.02,0,1.815-0.791,1.815-1.802l-0.002-0.239C1248.404,41.163,1243.733,36.423,1238.005,36.423z M1231.026,45.754
				c0.99-3.343,3.73-5.55,6.979-5.55c3.185,0,5.937,2.257,6.864,5.55H1231.026z M1331.353,56.29c-0.038,0-2.807,0-2.848,0
				c-1.055,0-2.282-0.609-2.282-2.314V35.053c0-1.113-0.908-2.016-2.026-2.016c-1.074,0-2.018,0.944-2.018,2.016v18.923
				c0,3.741,2.484,6.158,6.326,6.158c0.05,0,2.824,0,2.873-0.003c0.997-0.072,1.782-0.906,1.782-1.92
				C1333.16,57.193,1332.361,56.349,1331.353,56.29z M1362.25,50.044c-0.859-1.26-2.204-2.143-3.735-2.82
				c-1.492-0.647-3.248-1.089-5.152-1.427h-0.077c-2.012-0.341-3.693-0.888-4.663-1.499c-0.486-0.302-0.825-0.608-1.012-0.882
				c-0.185-0.269-0.26-0.545-0.26-0.949c0-0.716,0.408-1.461,1.422-2.141c1.005-0.68,2.501-1.157,4.178-1.157
				c2.277,0,4.106,1.019,6.013,2.175c0.896,0.541,2.091,0.304,2.65-0.51c0.597-0.782,0.337-1.871-0.52-2.412
				c-1.906-1.121-4.56-2.722-8.143-2.722c-2.428,0-4.701,0.647-6.457,1.801c-1.719,1.161-2.989,2.924-2.989,4.965
				c0,1.017,0.299,1.969,0.862,2.783c0.819,1.191,2.052,2.043,3.466,2.651c1.422,0.612,3.068,1.02,4.818,1.326h0.079
				c2.2,0.374,4.032,0.95,5.115,1.596c0.557,0.342,0.893,0.679,1.12,1.021c0.224,0.341,0.334,0.643,0.334,1.085
				c0,0.85-0.483,1.701-1.607,2.448c-1.118,0.746-2.798,1.258-4.663,1.258c-2.653,0.033-5.49-1.395-7.132-2.617
				c-0.824-0.615-2.054-0.512-2.727,0.233c-0.635,0.749-0.524,1.872,0.298,2.483c2.131,1.532,5.525,3.368,9.56,3.399
				c2.649,0,5.077-0.713,6.907-1.933c1.866-1.228,3.209-3.094,3.209-5.271C1363.145,51.875,1362.811,50.858,1362.25,50.044z
				 M1300.354,36.423c-6.038,0-10.951,5.339-10.951,11.899c0,6.508,4.913,11.809,10.951,11.809c3.713,0,7.124-2.024,9.143-5.416
				c0.484-0.877,0.24-1.966-0.613-2.617c-0.279-0.178-0.603-0.273-0.936-0.273c-0.644,0-1.217,0.346-1.531,0.912
				c-1.264,2.231-3.587,3.612-6.064,3.612c-3.663,0-6.7-2.914-7.243-6.859h16.297c1.016,0,1.814-0.791,1.814-1.802v-0.239
				C1310.757,41.163,1306.086,36.423,1300.354,36.423z M1293.376,45.754c0.989-3.343,3.73-5.55,6.977-5.55
				c3.191,0,5.939,2.257,6.866,5.55H1293.376z"/>
		</g>
		<g>
			<path fill="#253847" d="M1033.587,49.513c0,0.708,0.007,1.347,0.018,1.923c0.014,0.571,0.078,1.137,0.188,1.692h-1.121
				l-0.414-1.474h-0.084c-0.276,0.484-0.677,0.885-1.205,1.204c-0.526,0.318-1.14,0.477-1.848,0.477
				c-1.383,0-2.412-0.434-3.084-1.309c-0.671-0.871-1.006-2.235-1.006-4.092c0-1.771,0.419-3.116,1.258-4.036
				c0.836-0.92,1.989-1.38,3.456-1.38c0.512,0,0.917,0.026,1.215,0.08c0.297,0.056,0.619,0.145,0.964,0.271V38.55h1.663V49.513z
				 M1029.391,51.884c0.705,0,1.266-0.186,1.683-0.553c0.413-0.367,0.697-0.924,0.849-1.671v-5.15
				c-0.25-0.193-0.531-0.333-0.849-0.416c-0.321-0.083-0.742-0.124-1.268-0.124c-0.955,0-1.702,0.316-2.243,0.947
				c-0.539,0.629-0.81,1.635-0.81,3.018c0,0.569,0.046,1.095,0.136,1.579c0.087,0.488,0.238,0.901,0.446,1.247
				c0.208,0.348,0.48,0.62,0.821,0.821C1028.495,51.782,1028.906,51.884,1029.391,51.884z"/>
			<path fill="#253847" d="M1044.364,52.256c-0.418,0.333-0.938,0.595-1.568,0.789c-0.631,0.194-1.298,0.29-2.004,0.29
				c-0.79,0-1.476-0.128-2.057-0.384c-0.579-0.255-1.059-0.622-1.432-1.1c-0.374-0.478-0.651-1.05-0.83-1.714
				c-0.182-0.664-0.273-1.409-0.273-2.241c0-1.772,0.397-3.125,1.186-4.052c0.788-0.925,1.916-1.392,3.385-1.392
				c0.47,0,0.939,0.054,1.411,0.159c0.472,0.102,0.893,0.3,1.266,0.592c0.374,0.29,0.68,0.703,0.915,1.234
				c0.234,0.534,0.353,1.236,0.353,2.107c0,0.458-0.042,0.965-0.126,1.516h-6.665c0,0.609,0.061,1.15,0.187,1.621
				c0.124,0.471,0.317,0.868,0.582,1.192c0.263,0.327,0.604,0.577,1.027,0.75c0.423,0.173,0.938,0.261,1.547,0.261
				c0.47,0,0.94-0.086,1.413-0.252c0.47-0.164,0.823-0.36,1.059-0.58L1044.364,52.256z M1040.792,43.908
				c-0.817,0-1.472,0.213-1.963,0.643c-0.493,0.429-0.786,1.163-0.882,2.202h5.149c0-1.054-0.201-1.791-0.603-2.213
				C1042.092,44.118,1041.526,43.908,1040.792,43.908z"/>
			<path fill="#253847" d="M1051.901,50.262c0-0.418-0.124-0.742-0.372-0.976c-0.252-0.236-0.559-0.432-0.926-0.592
				c-0.367-0.159-0.769-0.313-1.203-0.458c-0.437-0.143-0.839-0.332-1.205-0.559c-0.367-0.228-0.674-0.523-0.924-0.882
				c-0.248-0.362-0.374-0.847-0.374-1.456c0-0.996,0.283-1.724,0.851-2.189c0.567-0.464,1.357-0.699,2.368-0.699
				c0.747,0,1.375,0.068,1.879,0.201c0.505,0.131,0.944,0.287,1.319,0.468l-0.395,1.367c-0.319-0.15-0.703-0.286-1.152-0.402
				c-0.451-0.118-0.931-0.178-1.445-0.178c-0.609,0-1.055,0.103-1.338,0.311c-0.285,0.209-0.426,0.568-0.426,1.08
				c0,0.359,0.123,0.641,0.375,0.841c0.248,0.201,0.555,0.381,0.922,0.54c0.367,0.159,0.769,0.314,1.205,0.468
				c0.435,0.153,0.837,0.354,1.204,0.603c0.367,0.248,0.675,0.563,0.924,0.944c0.25,0.382,0.374,0.88,0.374,1.504
				c0,0.445-0.072,0.861-0.216,1.247c-0.147,0.389-0.371,0.721-0.676,0.997c-0.306,0.278-0.681,0.496-1.132,0.653
				c-0.45,0.158-0.978,0.239-1.587,0.239c-0.79,0-1.462-0.078-2.014-0.228c-0.555-0.153-1.019-0.332-1.392-0.54l0.498-1.413
				c0.319,0.18,0.734,0.346,1.247,0.499c0.512,0.152,1.03,0.229,1.556,0.229c0.595,0,1.088-0.119,1.474-0.355
				C1051.707,51.293,1051.901,50.872,1051.901,50.262z"/>
			<path fill="#253847" d="M1056.076,39.547c0-0.318,0.106-0.592,0.321-0.823c0.215-0.228,0.489-0.342,0.821-0.342
				c0.332,0,0.614,0.113,0.85,0.342c0.236,0.231,0.353,0.505,0.353,0.823c0,0.316-0.117,0.582-0.353,0.788
				c-0.236,0.209-0.519,0.313-0.85,0.313c-0.332,0-0.606-0.103-0.821-0.313C1056.182,40.129,1056.076,39.863,1056.076,39.547z
				 M1056.428,42.703h1.661v10.382h-1.661V42.703z"/>
			<path fill="#253847" d="M1069.594,53.563c0,1.343-0.358,2.333-1.07,2.971c-0.713,0.636-1.767,0.954-3.166,0.954
				c-0.83,0-1.499-0.051-2.004-0.155c-0.504-0.103-0.938-0.239-1.3-0.406l0.438-1.412c0.318,0.127,0.671,0.244,1.059,0.354
				c0.388,0.112,0.893,0.166,1.516,0.166c0.581,0,1.055-0.052,1.421-0.156c0.367-0.103,0.662-0.278,0.882-0.52
				c0.222-0.241,0.374-0.554,0.458-0.934c0.083-0.381,0.124-0.834,0.124-1.361v-0.995h-0.083c-0.278,0.402-0.63,0.71-1.058,0.924
				c-0.43,0.215-0.99,0.323-1.684,0.323c-1.397,0-2.426-0.437-3.083-1.311c-0.658-0.871-0.987-2.228-0.987-4.071
				c0-1.771,0.423-3.116,1.266-4.036c0.845-0.92,2.091-1.38,3.738-1.38c0.789,0,1.465,0.061,2.026,0.185
				c0.561,0.124,1.062,0.271,1.505,0.435V53.563z M1065.42,51.86c0.705,0,1.26-0.176,1.661-0.529
				c0.402-0.353,0.687-0.903,0.853-1.65v-5.317c-0.555-0.264-1.261-0.395-2.119-0.395c-0.941,0-1.681,0.32-2.222,0.955
				c-0.539,0.636-0.81,1.635-0.81,2.99c0,0.582,0.049,1.114,0.145,1.598c0.098,0.488,0.25,0.901,0.458,1.247
				c0.208,0.348,0.477,0.617,0.81,0.81C1064.527,51.764,1064.934,51.86,1065.42,51.86z"/>
			<path fill="#253847" d="M1079.457,53.085V47.17c0-1.081-0.155-1.896-0.468-2.44c-0.311-0.548-0.883-0.821-1.712-0.821
				c-0.735,0-1.341,0.198-1.818,0.592c-0.477,0.393-0.814,0.889-1.008,1.485v7.1h-1.661V42.703h1.163l0.311,1.266h0.084
				c0.333-0.443,0.779-0.808,1.34-1.091c0.56-0.282,1.23-0.427,2.003-0.427c0.569,0,1.067,0.068,1.495,0.201
				c0.43,0.131,0.786,0.362,1.071,0.694c0.283,0.332,0.498,0.779,0.643,1.34c0.147,0.561,0.218,1.271,0.218,2.129v6.27H1079.457z"/>
			<path fill="#253847" d="M1091.729,52.256c-0.414,0.333-0.936,0.595-1.566,0.789c-0.631,0.194-1.298,0.29-2.004,0.29
				c-0.789,0-1.476-0.128-2.056-0.384c-0.581-0.255-1.059-0.622-1.434-1.1c-0.373-0.478-0.651-1.05-0.829-1.714
				c-0.18-0.664-0.271-1.409-0.271-2.241c0-1.772,0.395-3.125,1.185-4.052c0.788-0.925,1.917-1.392,3.385-1.392
				c0.472,0,0.942,0.054,1.413,0.159c0.469,0.102,0.891,0.3,1.266,0.592c0.373,0.29,0.676,0.703,0.912,1.234
				c0.236,0.534,0.354,1.236,0.354,2.107c0,0.458-0.042,0.965-0.123,1.516h-6.667c0,0.609,0.063,1.15,0.187,1.621
				c0.124,0.471,0.318,0.868,0.582,1.192c0.263,0.327,0.604,0.577,1.027,0.75c0.423,0.173,0.938,0.261,1.547,0.261
				c0.472,0,0.942-0.086,1.414-0.252c0.469-0.164,0.822-0.36,1.058-0.58L1091.729,52.256z M1088.159,43.908
				c-0.817,0-1.471,0.213-1.962,0.643c-0.491,0.429-0.786,1.163-0.883,2.202h5.151c0-1.054-0.202-1.791-0.603-2.213
				C1089.458,44.118,1088.891,43.908,1088.159,43.908z"/>
			<path fill="#253847" d="M1102.675,49.513c0,0.708,0.005,1.347,0.019,1.923c0.016,0.571,0.077,1.137,0.187,1.692h-1.121
				l-0.414-1.474h-0.083c-0.278,0.484-0.679,0.885-1.204,1.204c-0.528,0.318-1.144,0.477-1.85,0.477
				c-1.383,0-2.412-0.434-3.084-1.309c-0.67-0.871-1.008-2.235-1.008-4.092c0-1.771,0.419-3.116,1.258-4.036
				c0.836-0.92,1.989-1.38,3.458-1.38c0.512,0,0.917,0.026,1.214,0.08c0.299,0.056,0.62,0.145,0.966,0.271V38.55h1.663V49.513z
				 M1098.48,51.884c0.706,0,1.266-0.186,1.682-0.553c0.413-0.367,0.698-0.924,0.85-1.671v-5.15
				c-0.248-0.193-0.533-0.333-0.85-0.416c-0.318-0.083-0.741-0.124-1.268-0.124c-0.955,0-1.701,0.316-2.241,0.947
				c-0.54,0.629-0.811,1.635-0.811,3.018c0,0.569,0.044,1.095,0.135,1.579c0.089,0.488,0.239,0.901,0.445,1.247
				c0.209,0.348,0.482,0.62,0.823,0.821C1097.584,51.782,1097.995,51.884,1098.48,51.884z"/>
			<path fill="#253847" d="M1111.417,38.55h1.661v5.172h0.084c0.318-0.402,0.723-0.713,1.214-0.935
				c0.49-0.222,1.029-0.336,1.608-0.336c1.345,0,2.349,0.432,3.023,1.29c0.671,0.859,1.006,2.188,1.006,3.987
				c0,1.815-0.443,3.193-1.33,4.132c-0.885,0.942-2.132,1.411-3.737,1.411c-0.776,0-1.478-0.082-2.107-0.248
				c-0.63-0.166-1.105-0.346-1.424-0.54V38.55z M1115.695,43.908c-0.694,0-1.255,0.192-1.682,0.579
				c-0.43,0.388-0.74,0.936-0.934,1.641v5.233c0.262,0.153,0.583,0.269,0.955,0.346c0.374,0.075,0.761,0.113,1.163,0.113
				c0.94,0,1.693-0.335,2.253-0.999c0.559-0.664,0.839-1.701,0.839-3.113c0-0.539-0.047-1.046-0.143-1.518
				c-0.098-0.471-0.249-0.871-0.458-1.205c-0.208-0.333-0.474-0.596-0.798-0.786C1116.563,44.006,1116.164,43.908,1115.695,43.908z"
				/>
			<path fill="#253847" d="M1125.444,49.431l0.583,1.992h0.104l0.458-2.012l2.022-6.709h1.661l-3.074,9.323
				c-0.236,0.678-0.467,1.336-0.695,1.974c-0.229,0.636-0.483,1.204-0.758,1.703c-0.278,0.499-0.591,0.896-0.935,1.194
				c-0.348,0.297-0.748,0.445-1.205,0.445c-0.498,0-0.906-0.07-1.225-0.206l0.29-1.434c0.18,0.07,0.353,0.102,0.52,0.102
				c0.388,0,0.76-0.204,1.121-0.611c0.359-0.408,0.657-1.11,0.893-2.11l-4.175-10.382h1.91L1125.444,49.431z"/>
		</g>
	</g>
</g>
</svg>
