<?xml version="1.0" encoding="utf-8"?><svg version="1.1" id="Layer_1" xmlns="http://www.w3.org/2000/svg" xmlns:xlink="http://www.w3.org/1999/xlink" x="0px" y="0px" viewBox="0 0 122.88 122.59" style="enable-background:new 0 0 122.88 122.59" xml:space="preserve"><style type="text/css">.st0{fill-rule:evenodd;clip-rule:evenodd;}</style><g><path class="st0" d="M34.25,65.71l56.8-56.8c2.99-2.99,7.06-4.4,11.14-4.31c4.2,0.08,8.42,1.74,11.52,4.84 c3.04,3.04,4.56,7.05,4.56,11.07c0,4.01-1.52,8.03-4.56,11.07l-6.5,6.5l-6.62-6.62l-3.26,3.26l6.62,6.62l-8.77,8.77l-3.64-3.64 l-3.26,3.26l3.64,3.64l-8.58,8.58l-6.62-6.62l-3.26,3.26l6.62,6.62l-8.77,8.77l-3.64-3.64l-3.26,3.26l3.64,3.64l-8.58,8.58 l-6.62-6.62l-3.26,3.26l6.59,6.59c-5.23,4.76-6.72,5.07-9.94,5.75c-1.41,0.3-3.12,0.66-5.52,1.39 c-6.74,2.06-14.25,10.07-20.13,16.36c-1.39,1.48-2.68,2.86-3.97,4.16c-2.12,1.52-4.44,1.55-6.45,0.71 c-1.16-0.49-2.23-1.25-3.11-2.19c-0.9-0.95-1.6-2.06-2.02-3.23c-0.72-1.99-0.6-4.17,0.83-5.92c1.18-1.18,2.49-2.42,3.95-3.79 c6.26-5.88,14.95-14.06,16.69-20.07c0.59-2.03,0.93-3.66,1.23-5.11c0.83-3.97,1.35-6.48,6.46-11.35L34.25,65.71L34.25,65.71 L34.25,65.71z M22.62,104.1l-0.43-0.43L101.87,24c0.9-0.9,0.9-2.36,0-3.26c-0.9-0.9-2.36-0.9-3.26,0l-79.67,79.67l-0.17-0.17 c-0.12-0.12-0.32-0.12-0.44,0l-8.48,8.48c-1.18,1.18-1.18,3.11,0,4.29l0,0c1.18,1.18,3.11,1.18,4.29,0l8.48-8.48 C22.74,104.41,22.74,104.22,22.62,104.1L22.62,104.1z M87.79,5.65l-56.8,56.81l0,0c-6.11,5.83-6.74,8.89-7.75,13.7 c-0.29,1.4-0.62,2.97-1.14,4.77c-1.39,4.8-9.55,12.48-15.43,18c-1.62,1.53-3.08,2.9-4.07,3.89l0.01,0.01 c-0.04,0.04-0.08,0.08-0.11,0.12c-2.75,3.19-3.04,7.09-1.78,10.59c0.64,1.78,1.68,3.44,2.99,4.83c1.32,1.41,2.93,2.56,4.68,3.29 c3.41,1.43,7.36,1.36,10.98-1.28c0.16-0.09,0.31-0.21,0.44-0.35c1.14-1.14,2.58-2.68,4.14-4.34c5.52-5.9,12.57-13.42,18.11-15.11 c2.15-0.66,3.77-1,5.12-1.29c4.23-0.89,6.09-1.29,12.8-7.5c0.06-0.05,0.12-0.1,0.18-0.16l56.81-56.8 c3.94-3.94,5.91-9.13,5.91-14.33c0-5.19-1.97-10.38-5.91-14.33c-3.95-3.95-9.33-6.06-14.69-6.17C96.99-0.1,91.71,1.73,87.79,5.65 L87.79,5.65z"/></g></svg>