<svg id="Layer_1" data-name="Layer 1" xmlns="http://www.w3.org/2000/svg" viewBox="0 0 122.88 86"><defs><style>.cls-1{fill-rule:evenodd;}</style></defs><title>medical-device</title><path class="cls-1" d="M122.88,0V73H77.13v6.64h10V86H35.59V79.66H46.24V73H0V0ZM73.77,33.44a1.39,1.39,0,0,1,0,2.78H67.83a1.39,1.39,0,0,1-1.37-1.17L64.25,24,61.1,35.56a1.39,1.39,0,0,1-1.7,1,1.45,1.45,0,0,1-.9-.77l-3.1-6.84-2.26,5.53a1.39,1.39,0,0,1-1.29.87H47.78a1.37,1.37,0,0,1-1.31-.94l-2.23-5.46-3.11,6.84a1.38,1.38,0,0,1-1.83.7,1.41,1.41,0,0,1-.8-1L35.38,24l-4.5,22.54a1.39,1.39,0,0,1-2.72.06L23.59,32.38l-1,2.51a1.37,1.37,0,0,1-1.29.87h-9.5a1.4,1.4,0,0,1,0-2.79h8.57l2.08-5.21a1.4,1.4,0,0,1,.87-.81,1.38,1.38,0,0,1,1.74.9l4.15,12.9L33.8,17.7a1.43,1.43,0,0,1,1-1.07,1.4,1.4,0,0,1,1.71,1l3.68,13.5L43,24.86a1.38,1.38,0,0,1,2.56,0l3.13,7.65h2.2L54,24.89a1.42,1.42,0,0,1,.72-.75,1.4,1.4,0,0,1,1.84.7l2.84,6.27,3.65-13.39a1.4,1.4,0,0,1,2.74,0L69,33.44Zm27.17-23.17a8.46,8.46,0,1,1-8.45,8.45,8.45,8.45,0,0,1,8.45-8.45ZM84.12,3.55V60.47h35.19V3.55ZM81.78,60.47V3.55H3.55V60.47Zm22.39-20.78h.8V34.5a1.1,1.1,0,1,1,2.19,0v5.19h.68a1.09,1.09,0,0,1,1.09,1.09v5.41a1.09,1.09,0,0,1-1.09,1.09h-.68v5.18a1.1,1.1,0,1,1-2.19,0V47.28h-.8a1.08,1.08,0,0,1-1.08-1.09V40.78a1.08,1.08,0,0,1,1.08-1.09ZM94,39.69h.79V34.33a1.1,1.1,0,1,1,2.2,0v5.36h.68a1.09,1.09,0,0,1,1.09,1.09v5.41a1.09,1.09,0,0,1-1.09,1.09H97v5.36a1.1,1.1,0,0,1-2.2,0V47.28H94A1.09,1.09,0,0,1,93,46.19V40.78A1.09,1.09,0,0,1,94,39.69Zm6.9-24.41a3.45,3.45,0,1,1-3.44,3.44,3.45,3.45,0,0,1,3.44-3.44Zm-31.45,49H70.7A1.25,1.25,0,0,1,72,65.57h0a1.25,1.25,0,0,1-1.26,1.25H69.49a1.26,1.26,0,0,1-1.26-1.25h0a1.26,1.26,0,0,1,1.26-1.26Zm-17.31,0h1.21a1.26,1.26,0,0,1,1.26,1.26h0a1.26,1.26,0,0,1-1.26,1.25H52.18a1.25,1.25,0,0,1-1.26-1.25h0a1.25,1.25,0,0,1,1.26-1.26Zm6,0H64.7A1.26,1.26,0,0,1,66,65.57h0a1.26,1.26,0,0,1-1.26,1.25H58.13a1.26,1.26,0,0,1-1.26-1.25h0a1.26,1.26,0,0,1,1.26-1.26Z"/></svg>