<?xml version="1.0" encoding="utf-8"?><svg version="1.1" id="Layer_1" xmlns="http://www.w3.org/2000/svg" xmlns:xlink="http://www.w3.org/1999/xlink" x="0px" y="0px" viewBox="0 0 65.75 122.88" style="enable-background:new 0 0 65.75 122.88" xml:space="preserve"><style type="text/css">.st0{fill-rule:evenodd;clip-rule:evenodd;}</style><g><path class="st0" d="M16.91,47.63h19.88v-32.6c0-2.73-1.12-5.22-2.92-7.02c-1.8-1.8-4.29-2.92-7.02-2.92s-5.22,1.12-7.02,2.92 c-1.8,1.8-2.92,4.29-2.92,7.02V47.63L16.91,47.63z M49.06,13.93c-1.41,0-2.55-1.14-2.55-2.55c0-1.41,1.14-2.55,2.55-2.55H63.2 c1.41,0,2.55,1.14,2.55,2.55c0,1.41-1.14,2.55-2.55,2.55H49.06L49.06,13.93z M49.06,28.3c-1.41,0-2.55-1.14-2.55-2.55 s1.14-2.55,2.55-2.55H63.2c1.41,0,2.55,1.14,2.55,2.55s-1.14,2.55-2.55,2.55H49.06L49.06,28.3z M49.06,42.67 c-1.41,0-2.55-1.14-2.55-2.55c0-1.41,1.14-2.55,2.55-2.55H63.2c1.41,0,2.55,1.14,2.55,2.55c0,1.41-1.14,2.55-2.55,2.55H49.06 L49.06,42.67z M49.06,57.04c-1.41,0-2.55-1.14-2.55-2.55c0-1.41,1.14-2.55,2.55-2.55H63.2c1.41,0,2.55,1.14,2.55,2.55 c0,1.41-1.14,2.55-2.55,2.55H49.06L49.06,57.04z M49.06,71.41c-1.41,0-2.55-1.14-2.55-2.55c0-1.41,1.14-2.55,2.55-2.55H63.2 c1.41,0,2.55,1.14,2.55,2.55c0,1.41-1.14,2.55-2.55,2.55H49.06L49.06,71.41z M41.88,74.45c6.87,4.81,11.36,12.79,11.36,21.81 c0,14.7-11.92,26.62-26.62,26.62C11.92,122.88,0,110.96,0,96.26c0-9.22,4.69-17.35,11.82-22.12V15.03c0-4.14,1.69-7.89,4.41-10.62 C18.95,1.69,22.71,0,26.85,0c4.14,0,7.89,1.69,10.62,4.41c2.72,2.72,4.41,6.48,4.41,10.62V74.45L41.88,74.45z"/></g></svg>